<mxfile host="app.diagrams.net" agent="Mozilla/5.0 (Windows NT 10.0; Win64; x64) AppleWebKit/537.36 (KHTML, like Gecko) Chrome/131.0.0.0 Safari/537.36" version="26.0.1">
  <diagram name="第 1 页" id="TTIcEwNf0a6lBOe3xrUE">
    <mxGraphModel dx="1323" dy="743" grid="1" gridSize="10" guides="1" tooltips="1" connect="1" arrows="1" fold="1" page="0" pageScale="1" pageWidth="827" pageHeight="1169" math="0" shadow="0">
      <root>
        <mxCell id="0" />
        <mxCell id="1" parent="0" />
        <mxCell id="cgORqCmPb3DNHbePUpFv-5" value="" style="edgeStyle=orthogonalEdgeStyle;rounded=0;orthogonalLoop=1;jettySize=auto;html=1;" edge="1" parent="1" source="cgORqCmPb3DNHbePUpFv-1" target="cgORqCmPb3DNHbePUpFv-3">
          <mxGeometry relative="1" as="geometry" />
        </mxCell>
        <mxCell id="cgORqCmPb3DNHbePUpFv-1" value="Start" style="strokeWidth=2;html=1;shape=mxgraph.flowchart.start_1;whiteSpace=wrap;fillColor=#dae8fc;strokeColor=#6c8ebf;" vertex="1" parent="1">
          <mxGeometry x="370" y="210" width="100" height="60" as="geometry" />
        </mxCell>
        <mxCell id="cgORqCmPb3DNHbePUpFv-8" value="" style="edgeStyle=orthogonalEdgeStyle;rounded=0;orthogonalLoop=1;jettySize=auto;html=1;" edge="1" parent="1" source="cgORqCmPb3DNHbePUpFv-3" target="cgORqCmPb3DNHbePUpFv-7">
          <mxGeometry relative="1" as="geometry" />
        </mxCell>
        <mxCell id="cgORqCmPb3DNHbePUpFv-3" value="Select to search for other user accounts" style="rounded=1;whiteSpace=wrap;html=1;absoluteArcSize=1;arcSize=14;strokeWidth=2;fillColor=#f8cecc;strokeColor=#b85450;" vertex="1" parent="1">
          <mxGeometry x="360" y="370" width="120" height="60" as="geometry" />
        </mxCell>
        <mxCell id="cgORqCmPb3DNHbePUpFv-12" value="" style="edgeStyle=orthogonalEdgeStyle;rounded=0;orthogonalLoop=1;jettySize=auto;html=1;" edge="1" parent="1" source="cgORqCmPb3DNHbePUpFv-7" target="cgORqCmPb3DNHbePUpFv-11">
          <mxGeometry relative="1" as="geometry" />
        </mxCell>
        <mxCell id="cgORqCmPb3DNHbePUpFv-7" value="Enter name or username" style="shape=parallelogram;html=1;strokeWidth=2;perimeter=parallelogramPerimeter;whiteSpace=wrap;rounded=1;arcSize=12;size=0.23;fillColor=#d5e8d4;strokeColor=#82b366;" vertex="1" parent="1">
          <mxGeometry x="360" y="530" width="120" height="60" as="geometry" />
        </mxCell>
        <mxCell id="cgORqCmPb3DNHbePUpFv-14" value="" style="edgeStyle=orthogonalEdgeStyle;rounded=0;orthogonalLoop=1;jettySize=auto;html=1;" edge="1" parent="1" source="cgORqCmPb3DNHbePUpFv-11" target="cgORqCmPb3DNHbePUpFv-13">
          <mxGeometry relative="1" as="geometry" />
        </mxCell>
        <mxCell id="cgORqCmPb3DNHbePUpFv-11" value="Filter by name or username" style="rounded=1;whiteSpace=wrap;html=1;absoluteArcSize=1;arcSize=14;strokeWidth=2;fillColor=#f8cecc;strokeColor=#b85450;" vertex="1" parent="1">
          <mxGeometry x="360" y="690" width="120" height="60" as="geometry" />
        </mxCell>
        <mxCell id="cgORqCmPb3DNHbePUpFv-19" value="" style="edgeStyle=orthogonalEdgeStyle;rounded=0;orthogonalLoop=1;jettySize=auto;html=1;" edge="1" parent="1" source="cgORqCmPb3DNHbePUpFv-13" target="cgORqCmPb3DNHbePUpFv-15">
          <mxGeometry relative="1" as="geometry" />
        </mxCell>
        <mxCell id="cgORqCmPb3DNHbePUpFv-13" value="List users based&amp;nbsp;&lt;div&gt;on the user&lt;/div&gt;&lt;div&gt;&amp;nbsp;or username&lt;/div&gt;" style="shape=parallelogram;html=1;strokeWidth=2;perimeter=parallelogramPerimeter;whiteSpace=wrap;rounded=1;arcSize=12;size=0.23;fillColor=#d5e8d4;strokeColor=#82b366;" vertex="1" parent="1">
          <mxGeometry x="350" y="850" width="140" height="60" as="geometry" />
        </mxCell>
        <mxCell id="cgORqCmPb3DNHbePUpFv-18" value="" style="edgeStyle=orthogonalEdgeStyle;rounded=0;orthogonalLoop=1;jettySize=auto;html=1;" edge="1" parent="1" source="cgORqCmPb3DNHbePUpFv-15" target="cgORqCmPb3DNHbePUpFv-17">
          <mxGeometry relative="1" as="geometry" />
        </mxCell>
        <mxCell id="cgORqCmPb3DNHbePUpFv-15" value="Add a user as friend" style="rounded=1;whiteSpace=wrap;html=1;absoluteArcSize=1;arcSize=14;strokeWidth=2;fillColor=#f8cecc;strokeColor=#b85450;" vertex="1" parent="1">
          <mxGeometry x="360" y="1010" width="120" height="60" as="geometry" />
        </mxCell>
        <mxCell id="cgORqCmPb3DNHbePUpFv-25" style="edgeStyle=orthogonalEdgeStyle;rounded=0;orthogonalLoop=1;jettySize=auto;html=1;entryX=0.5;entryY=0;entryDx=0;entryDy=0;" edge="1" parent="1" source="cgORqCmPb3DNHbePUpFv-17" target="cgORqCmPb3DNHbePUpFv-22">
          <mxGeometry relative="1" as="geometry" />
        </mxCell>
        <mxCell id="cgORqCmPb3DNHbePUpFv-17" value="Does the user&amp;nbsp;&lt;div&gt;accepts&lt;span style=&quot;background-color: transparent; color: light-dark(rgb(0, 0, 0), rgb(255, 255, 255));&quot;&gt;&amp;nbsp;or rejects as friend?&lt;/span&gt;&lt;/div&gt;" style="strokeWidth=2;html=1;shape=mxgraph.flowchart.decision;whiteSpace=wrap;fillColor=#e1d5e7;strokeColor=#9673a6;" vertex="1" parent="1">
          <mxGeometry x="350" y="1160" width="140" height="80" as="geometry" />
        </mxCell>
        <mxCell id="cgORqCmPb3DNHbePUpFv-22" value="Add the user in friends list" style="rounded=1;whiteSpace=wrap;html=1;absoluteArcSize=1;arcSize=14;strokeWidth=2;fillColor=#f8cecc;strokeColor=#b85450;" vertex="1" parent="1">
          <mxGeometry x="200" y="1250" width="120" height="60" as="geometry" />
        </mxCell>
        <mxCell id="cgORqCmPb3DNHbePUpFv-24" value="End" style="strokeWidth=2;html=1;shape=mxgraph.flowchart.start_1;whiteSpace=wrap;fillColor=#dae8fc;strokeColor=#6c8ebf;" vertex="1" parent="1">
          <mxGeometry x="370" y="1410" width="100" height="60" as="geometry" />
        </mxCell>
        <mxCell id="cgORqCmPb3DNHbePUpFv-26" style="edgeStyle=orthogonalEdgeStyle;rounded=0;orthogonalLoop=1;jettySize=auto;html=1;entryX=0.5;entryY=0;entryDx=0;entryDy=0;entryPerimeter=0;" edge="1" parent="1" source="cgORqCmPb3DNHbePUpFv-17" target="cgORqCmPb3DNHbePUpFv-24">
          <mxGeometry relative="1" as="geometry" />
        </mxCell>
        <mxCell id="cgORqCmPb3DNHbePUpFv-27" style="edgeStyle=orthogonalEdgeStyle;rounded=0;orthogonalLoop=1;jettySize=auto;html=1;entryX=0.5;entryY=0;entryDx=0;entryDy=0;entryPerimeter=0;" edge="1" parent="1" source="cgORqCmPb3DNHbePUpFv-22" target="cgORqCmPb3DNHbePUpFv-24">
          <mxGeometry relative="1" as="geometry">
            <Array as="points">
              <mxPoint x="260" y="1360" />
              <mxPoint x="420" y="1360" />
            </Array>
          </mxGeometry>
        </mxCell>
      </root>
    </mxGraphModel>
  </diagram>
</mxfile>
